# xmcd CD database file
#
# Track frame offsets:
#	150
#	17671
#	31848
#	47816
#	65579
#	81349
#	94178
#	107228
#	114128
#	124933
#	140742
#	153117
#
# Disc length: 2211 seconds
#
# Revision: 0
# Processed by: cddbd v1.5.2PL0 Copyright (c) Steve Scherf et al.
# Submitted via: CDex 1.70beta2
#
DISCID=9b08a10c
DTITLE=Brent Lee - The Worst of the Brent Lee Band
DYEAR=2004
DGENRE=Country
TTITLE0=Tits
TTITLE1=I'm Kissing You Goodbye
TTITLE2=Drinkin's Gonna Kill Me
TTITLE3=The Water Song
TTITLE4=If You Leave Me Can I Come Too?
TTITLE5=Mule Skinner Blues
TTITLE6=She's Gone 'Cause She Left But That's Alright
TTITLE7=Go Away
TTITLE8=Bob Bought a Van
TTITLE9=Rubber Biscuit
TTITLE10=The Kids Are All Ugly 'Cause of You
TTITLE11=Camel Toes
EXTD=YEAR: 2004
EXTT0=
EXTT1=
EXTT2=
EXTT3=
EXTT4=
EXTT5=
EXTT6=
EXTT7=
EXTT8=
EXTT9=
EXTT10=
EXTT11=
PLAYORDER=
